<svg xmlns="http://www.w3.org/2000/svg" viewBox="0 0 400 400" width="400" height="400">
  <defs>
    <linearGradient id="block" x1="200" y1="80" x2="200" y2="360" gradientUnits="userSpaceOnUse">
      <stop offset="0%" stop-color="#e4ff66"/>
      <stop offset="50%" stop-color="#86c61e"/>
      <stop offset="100%" stop-color="#2e5a0d"/>
    </linearGradient>

    <linearGradient id="bg" x1="0" y1="0" x2="0" y2="400" gradientUnits="userSpaceOnUse">
      <stop offset="0%" stop-color="#1a1f26"/>
      <stop offset="100%" stop-color="#070a0d"/>
    </linearGradient>

    <filter id="drop" x="-30%" y="-30%" width="160%" height="160%">
      <feGaussianBlur in="SourceAlpha" stdDeviation="8"/>
      <feOffset dx="0" dy="10" result="off"/>
      <feComponentTransfer><feFuncA type="linear" slope="0.5"/></feComponentTransfer>
      <feMerge>
        <feMergeNode/>
        <feMergeNode in="SourceGraphic"/>
      </feMerge>
    </filter>

    <mask id="cut-hub" maskUnits="userSpaceOnUse" x="0" y="0" width="400" height="400">
      <rect width="400" height="400" fill="white"/>
      <g stroke="black" stroke-width="14" stroke-linecap="round">
        <line x1="200" y1="220" x2="275" y2="220"/>
        <line x1="200" y1="220" x2="253.03" y2="273.03"/>
        <line x1="200" y1="220" x2="200" y2="295"/>
        <line x1="200" y1="220" x2="146.97" y2="273.03"/>
        <line x1="200" y1="220" x2="125" y2="220"/>
        <line x1="200" y1="220" x2="146.97" y2="166.97"/>
        <line x1="200" y1="220" x2="200" y2="145"/>
        <line x1="200" y1="220" x2="253.03" y2="166.97"/>
      </g>
      <g fill="black">
        <circle cx="200" cy="220" r="24"/>
        <circle cx="275" cy="220" r="14"/>
        <circle cx="253.03" cy="273.03" r="14"/>
        <circle cx="200" cy="295" r="14"/>
        <circle cx="146.97" cy="273.03" r="14"/>
        <circle cx="125" cy="220" r="14"/>
        <circle cx="146.97" cy="166.97" r="14"/>
        <circle cx="200" cy="145" r="14"/>
        <circle cx="253.03" cy="166.97" r="14"/>
      </g>
    </mask>
  </defs>

  <rect width="400" height="400" fill="url(#bg)"/>
  <g filter="url(#drop)" mask="url(#cut-hub)">
    <polygon points="200,80 320,150 320,290 200,360 80,290 80,150" fill="url(#block)"/>
  </g>
</svg>
